<svg id="Layer_1" data-name="Layer 1" xmlns="http://www.w3.org/2000/svg" viewBox="0 0 833.01 833.01"><defs><style>.cls-1{fill:#03ddff;}.cls-2{fill:none;stroke:#03ddff;stroke-miterlimit:10;stroke-width:50px;}</style></defs><path class="cls-1" d="M574.63,545.21V470.29c.06,0,26,.25,34.7,0,6.41-.18,13.39-.77,24-8.93,7.58-5.81,16.29-16.34,16.29-46.46,0-17.68-2.94-30.24-9-38.41-8.82-11.92-26.23-14-31.36-13.65l-29.35.1-.46-.05-150.1,1.21-.3-74.93L609.33,288c9,.33,44.43,0,70.24,34.18,11.82,15.66,25.9,44.54,25.9,93.21,0,27.23-4.37,51.14-13,71-7.47,17.27-20.5,30.69-33.65,40.76-20.05,15.35-38.1,17.94-49.5,18.05Z" transform="translate(-123.49 -123.49)"/><polygon class="cls-1" points="636.17 742.54 321.98 250.38 361.59 200.32 639.22 632.88 639.22 384.32 692.47 384.32 692.47 726.84 636.17 742.54"/><polygon class="cls-1" points="359.04 695.78 58.84 225.95 98.46 175.89 305.79 500.19 305.79 201.56 359.04 201.56 359.04 695.78"/><circle class="cls-2" cx="416.51" cy="416.51" r="391.51"/></svg>