<svg id="Layer_1" data-name="Layer 1" xmlns="http://www.w3.org/2000/svg" viewBox="0 0 773.2 892.77">
  <defs>
    <style>
      .cls-1 {
        fill: #8c6239;
      }

      .cls-1, .cls-2, .cls-3, .cls-4, .cls-5 {
        stroke: #000;
      }

      .cls-1, .cls-2, .cls-3, .cls-4, .cls-5, .cls-6 {
        stroke-miterlimit: 10;
        stroke-width: 3px;
      }

      .cls-2 {
        fill: #fcee21;
      }

      .cls-3 {
        fill: #0071bc;
      }

      .cls-4, .cls-7 {
        fill: #fff;
      }

      .cls-5 {
        fill: #ed1c24;
      }

      .cls-6 {
        stroke: #fff;
      }
    </style>
  </defs>
  <g>
    <polygon class="cls-1" points="485.97 272.97 636.41 590.76 486.18 619.75 769.48 667.6 485.97 272.97"/>
    <g>
      <polygon class="cls-2" points="195.6 426.75 136.52 302.19 262.94 277.69 266.56 269.7 3.38 225.45 287.19 619.86 197.55 430.87 195.6 426.75"/>
      <polygon class="cls-3" points="498.83 290.87 636.6 302.2 594.42 423.93 599.53 431.03 769.72 225.42 479.72 254.19 471.05 255.05 308.01 271.23 305.42 274.98 494.27 290.5 498.83 290.87"/>
      <polygon class="cls-4" points="510.15 615.12 577.37 466.04 575.4 461.88 386.65 735.13 286.36 619.61 386.74 888.83 506.51 623.18 510.15 615.12"/>
      <polygon class="cls-5" points="278.88 602.34 274.31 601.97 136.55 590.75 178.63 468.99 173.52 461.89 3.48 667.63 293.45 638.64 302.13 637.77 465.16 621.48 467.75 617.73 278.88 602.34"/>
      <polygon class="cls-6" points="386.63 3.94 197.56 422.81 200.04 427.97 305.42 274.98 305.44 274.95 386.62 157.63 467.97 252.3 478.98 251.25 386.63 3.94"/>
    </g>
  </g>
  <g>
    <g>
      <path class="cls-7" d="M407.34,571.31a13.06,13.06,0,0,1-13-13V508H408v49.63h35.9V508h13.82v50.33a13.13,13.13,0,0,1-13,13Z" transform="translate(-153.45 -93.62)"/>
      <path class="cls-7" d="M444.65,571.81H407.34a13.55,13.55,0,0,1-13.52-13.52V507.46h14.64v49.63h34.9V507.46h14.82v50.83a13.64,13.64,0,0,1-13.53,13.52Zm-49.83-63.35v49.83a12.56,12.56,0,0,0,12.52,12.52h37.31a12.63,12.63,0,0,0,12.53-12.52V508.46H444.36v49.63h-36.9V508.46Z" transform="translate(-153.45 -93.62)"/>
    </g>
    <g>
      <path class="cls-7" d="M467.36,571.31V508h14.08l35.46,42.23V508h13.82v63.35H516.64L481,528.9v42.41Z" transform="translate(-153.45 -93.62)"/>
      <path class="cls-7" d="M531.22,571.81H516.41L481.5,530.27v41.54H466.86V507.46h14.81l34.73,41.36V507.46h14.82Zm-14.35-1h13.35V508.46H517.4v43.11l-36.19-43.11H467.86v62.35H480.5V527.53Z" transform="translate(-153.45 -93.62)"/>
    </g>
    <g>
      <path class="cls-7" d="M540.22,571.31V508h13.46v63.35Z" transform="translate(-153.45 -93.62)"/>
      <path class="cls-7" d="M554.18,571.81H539.72V507.46h14.46Zm-13.46-1h12.46V508.46H540.72Z" transform="translate(-153.45 -93.62)"/>
    </g>
    <g>
      <path class="cls-7" d="M582.81,571.31V521.68H558V508h63.36v13.72H596.54v49.63Z" transform="translate(-153.45 -93.62)"/>
      <path class="cls-7" d="M597,571.81H582.31V522.18H557.49V507.46h64.36v14.72H597Zm-13.73-1H596V521.18h24.81V508.46H558.49v12.72h24.82Z" transform="translate(-153.45 -93.62)"/>
    </g>
    <g>
      <path class="cls-7" d="M628.13,571.31V508h58.52v13.72H642v11.09h36V546.5H642v11.09h44.7v13.72Z" transform="translate(-153.45 -93.62)"/>
      <path class="cls-7" d="M687.15,571.81H627.63V507.46h59.52v14.72h-44.7v10.09h36V547h-36v10.09h44.7Zm-58.52-1h57.52V558.09h-44.7V546h36V533.27h-36V521.18h44.7V508.46H628.63Z" transform="translate(-153.45 -93.62)"/>
    </g>
  </g>
  <g>
    <line class="cls-7" x1="474.77" y1="404.46" x2="533.1" y2="404.46"/>
    <rect class="cls-7" x="474.77" y="400.96" width="58.33" height="7"/>
  </g>
</svg>
