<svg id="Layer_1" data-name="Layer 1" xmlns="http://www.w3.org/2000/svg" viewBox="0 0 773.2 892.77">
  <defs>
    <style>
      .cls-1 {
        fill: #8c6239;
      }

      .cls-1, .cls-2, .cls-3, .cls-4, .cls-5, .cls-6 {
        stroke: #000;
        stroke-miterlimit: 10;
        stroke-width: 3px;
      }

      .cls-3 {
        fill: #fcee21;
      }

      .cls-4 {
        fill: #0071bc;
      }

      .cls-5 {
        fill: #fff;
      }

      .cls-6 {
        fill: #ed1c24;
      }
    </style>
  </defs>
  <g>
    <polygon class="cls-1" points="485.97 272.98 636.41 590.76 486.18 619.75 769.48 667.6 485.97 272.98"/>
    <g>
      <polygon class="cls-2" points="186.56 446.75 386.62 157.64 486.8 273.23 386.63 3.94 186.56 446.75"/>
      <polygon class="cls-3" points="195.6 426.75 136.52 302.19 262.94 277.7 266.56 269.7 3.38 225.46 287.19 619.87 197.55 430.87 195.6 426.75"/>
      <polygon class="cls-4" points="498.83 290.88 636.6 302.2 594.42 423.93 599.53 431.04 769.72 225.42 479.72 254.19 471.05 255.06 308.01 271.23 305.42 274.98 494.27 290.5 498.83 290.88"/>
      <polygon class="cls-5" points="510.15 615.13 577.37 466.04 575.4 461.88 386.65 735.13 286.36 619.62 386.74 888.83 506.51 623.19 510.15 615.13"/>
      <polygon class="cls-6" points="278.88 602.35 274.31 601.98 136.55 590.75 178.63 469 173.52 461.89 3.48 667.63 293.45 638.64 302.13 637.78 465.16 621.48 467.75 617.73 278.88 602.35"/>
    </g>
  </g>
  <g>
    <path d="M407.34,571.31a13.06,13.06,0,0,1-13-13V508H408v49.63h35.9V508h13.82v50.33a13.13,13.13,0,0,1-13,13Z" transform="translate(-153.45 -93.61)"/>
    <path d="M467.36,571.31V508h14.08l35.46,42.23V508h13.82v63.35H516.64L481,528.9v42.41Z" transform="translate(-153.45 -93.61)"/>
    <path d="M540.22,571.31V508h13.46v63.35Z" transform="translate(-153.45 -93.61)"/>
    <path d="M582.81,571.31V521.68H558V508h63.36v13.72H596.54v49.63Z" transform="translate(-153.45 -93.61)"/>
    <path d="M628.13,571.31V508h58.52v13.72H642v11.09h36V546.5H642v11.09h44.7v13.72Z" transform="translate(-153.45 -93.61)"/>
  </g>
  <rect x="474.77" y="400.96" width="58.33" height="7"/>
</svg>
