<svg id="Layer_1" data-name="Layer 1" xmlns="http://www.w3.org/2000/svg" viewBox="0 0 743.9 796"><defs><style>.cls-1,.cls-10,.cls-11,.cls-12,.cls-13{fill:#b7872d;}.cls-14,.cls-2,.cls-5{fill:#231f20;}.cls-2,.cls-3,.cls-4,.cls-5,.cls-8,.cls-9{stroke:#b7872d;}.cls-10,.cls-11,.cls-12,.cls-13,.cls-14,.cls-2,.cls-3,.cls-4,.cls-5,.cls-8,.cls-9{stroke-miterlimit:10;}.cls-2{stroke-width:4px;}.cls-3{font-size:53px;}.cls-3,.cls-4,.cls-8,.cls-9{fill:#fff;}.cls-10,.cls-11,.cls-3,.cls-4,.cls-9{font-family:Garamond-Bold, Garamond;}.cls-10,.cls-11,.cls-3,.cls-4,.cls-8,.cls-9{font-weight:700;}.cls-4{font-size:54.27px;}.cls-13,.cls-5{stroke-width:2px;}.cls-6{opacity:0.05;}.cls-7{fill:#898279;}.cls-8{font-size:226.33px;font-family:Georgia-Bold, Georgia;}.cls-12,.cls-14,.cls-8{stroke-width:3px;}.cls-9{font-size:34px;}.cls-10,.cls-9{stroke-width:0.5px;}.cls-10{font-size:31px;}.cls-10,.cls-11,.cls-12,.cls-13{stroke:#fff;}.cls-11{font-size:57px;stroke-width:0.75px;}.cls-14{stroke:#b4e4fa;}</style></defs><path class="cls-1" d="M596.38,140.14,583.05,95l-47-5.53A323.68,323.68,0,0,1,596.38,140.14Z" transform="translate(8.82 -13.82)"/><path class="cls-1" d="M360.75,37.62A326.77,326.77,0,0,1,400.18,40L360,13.82,319.07,40.3A324,324,0,0,1,360.75,37.62Z" transform="translate(8.82 -13.82)"/><path class="cls-1" d="M187.3,88.26,137,95l-15.86,49.52A323.74,323.74,0,0,1,187.3,88.26Z" transform="translate(8.82 -13.82)"/><path class="cls-1" d="M701.73,300.57l-32.79-34.76a321.68,321.68,0,0,1,13.57,79Z" transform="translate(8.82 -13.82)"/><path class="cls-1" d="M60.92,477.7l-1.43,56.63,50.18,27.17A321.75,321.75,0,0,1,60.92,477.7Z" transform="translate(8.82 -13.82)"/><path class="cls-1" d="M614.83,557.73l45.68-23.4L658,484.15A322.13,322.13,0,0,1,614.83,557.73Z" transform="translate(8.82 -13.82)"/><path class="cls-1" d="M54.36,260.11,18.27,300.57l20.46,51.29A321.61,321.61,0,0,1,54.36,260.11Z" transform="translate(8.82 -13.82)"/><path class="cls-1" d="M425.24,675.39l53.44,11.51,32.79-42.44A319.94,319.94,0,0,1,425.24,675.39Z" transform="translate(8.82 -13.82)"/><path class="cls-1" d="M205.87,642.22l35.45,44.68,54.94-11.51A319.85,319.85,0,0,1,205.87,642.22Z" transform="translate(8.82 -13.82)"/><path class="cls-2" d="M360.75,42.87c-175,0-316.88,141.87-316.88,316.88S185.74,676.63,360.75,676.63,677.63,534.76,677.63,359.75,535.76,42.87,360.75,42.87ZM360,614C219.7,614,106,500.3,106,360S219.7,106,360,106,614,219.7,614,360,500.3,614,360,614Z" transform="translate(8.82 -13.82)"/><text class="cls-3" transform="translate(200.19 139.38) rotate(-34.92)">D</text><text class="cls-3" transform="translate(233.2 116.4) rotate(-26.73)">E</text><text class="cls-3" transform="translate(265.8 100.04) rotate(-19.32)">L</text><text class="cls-3" transform="matrix(0.98, -0.21, 0.21, 0.98, 295.61, 89.36)">T</text><text class="cls-3" transform="translate(326.4 82.47) rotate(-5.53)">A</text><text class="cls-3" transform="translate(360.3 79.63) rotate(-0.5)"> </text><text class="cls-3" transform="translate(372.94 79.25) rotate(3.7)">S</text><text class="cls-3" transform="translate(399.22 81.1) rotate(8.4)">I</text><text class="cls-3" transform="matrix(0.97, 0.26, -0.26, 0.97, 419.14, 83.56)">G</text><text class="cls-3" transform="translate(455.45 92.62) rotate(23.9)">M</text><text class="cls-3" transform="translate(498.51 112.18) rotate(32.65)">A</text><text class="cls-3" transform="translate(526.93 130.91) rotate(37.68)"> </text><text class="cls-3" transform="matrix(0.76, 0.65, -0.65, 0.76, 537.1, 138.75)"> </text><text class="cls-3" transform="matrix(0.73, 0.68, -0.68, 0.73, 546.88, 147.08)"> </text><text class="cls-4" transform="matrix(0.78, 0.61, -0.62, 0.79, 167.65, 570.6)">Α</text><text class="cls-4" transform="matrix(0.85, 0.52, -0.52, 0.86, 197.69, 594.02)">Λ</text><text class="cls-4" transform="translate(230.7 614.33) rotate(22.64)">Φ</text><text class="cls-4" transform="matrix(0.97, 0.24, -0.24, 0.97, 279.08, 633.69)">Α</text><text class="cls-4" transform="translate(315.47 642.19) rotate(9.01)"> </text><text class="cls-4" transform="translate(331.18 645.52) rotate(2.67)">Φ</text><text class="cls-4" transform="matrix(0.99, -0.08, 0.08, 1, 382.63, 646.9)">Ι</text><text class="cls-4" transform="matrix(0.99, -0.14, 0.14, 0.99, 405.32, 644.97)"> </text><text class="cls-4" transform="matrix(0.97, -0.22, 0.22, 0.97, 420.72, 643.2)">Α</text><text class="cls-4" transform="matrix(0.93, -0.34, 0.35, 0.94, 458, 634.42)">Λ</text><text class="cls-4" transform="translate(494.49 621.22) rotate(-28.92)">Φ</text><text class="cls-4" transform="translate(539.75 595.34) rotate(-37.66)">Α</text><circle class="cls-5" cx="368.82" cy="346.18" r="246.17"/><g class="cls-6"><path class="cls-7" d="M361.51,160.11h7.32c1.74.63,3.52,1.15,5.19,1.93a2.36,2.36,0,0,1,1.15,1.8c0,.47-1,.92-1.85,1.69v-2.84c-1.74.75-1.39,1.81-1.07,3.09a28.73,28.73,0,0,1,.44,4.29,2.65,2.65,0,0,0,.18.71,12.18,12.18,0,0,1,2.67,0,153.1,153.1,0,0,1,51.92,24.42c4.58,3.28,8.75,5.19,14.19,4.36.14,0,.29,0,.43,0,2-.42,3,.53,3.78,2.25,3.54,7.91,7.38,15.68,10.67,23.68,10.4,25.23,19.27,51,27.12,77.15,5.18,17.26,9.66,34.73,14.45,52.11.37,1.36.71,2.72,1.07,4.08v2.58c-.93,0-1.87,0-2.8,0l-42.06-2.61q-22.21-1.4-44.42-2.82c-4.27-.26-8.54-.48-12.93-.73-.06.89-.14,1.52-.14,2.14-.27,20.22-.77,40.43-.72,60.64.06,28.83,1.53,57.61,3.82,86.34a36.6,36.6,0,0,0,1.61,7.08,2.76,2.76,0,0,0,3.13,2c3-.15,6,0,9-.28,2.71-.21,5.4-.76,8.1-1.16l0-.61-13.44-1c-4.19-.32-4.2-.32-4.54-4.56a2.91,2.91,0,0,1,.16-.74c.64,0,1.27,0,1.9,0,7.94.53,15.9.85,23.8,1.74,3.56.39,5.3-1.47,7.66-3.83l-11.12-.9c-6.79-.54-13.58-1.06-20.36-1.68a2.17,2.17,0,0,1-1.62-1.1,30.44,30.44,0,0,1-.47-4.4c1.24,0,2.3-.1,3.34,0,10.26,1.11,20.52,2.22,30.77,3.4,3.55.41,4.46-.09,5.63-4l-39.61-4.17V484c1.24,0,2.32-.09,3.38,0,11.92,1.1,23.84,2.19,35.75,3.36,4.55.45,4.65.46,5.74-3.94,0-.05-.05-.12-.19-.44l-44.82-3.67c-.35-2.14-.66-4.07-1-6.16.78,0,1.26,0,1.74,0,14.09,1,28.17,2.07,42.25,3.07,4.58.33,4.58.26,5.11-4.36a2.2,2.2,0,0,0-.16-.57l-48.8-3.77v-6.79l50.25,4c.22-2.12.42-3.93.62-5.9l-50.84-3.35v-6.31l51.38,4.2c.08-1.8.15-3.41.23-5.1l-51.61-4.66v-6.56l51.8,4.07v-5.67c-.9-.12-1.73-.27-2.57-.34q-11.58-.92-23.15-1.82c-8.15-.62-16.3-1.2-24.44-1.89-.63-.05-1.65-.74-1.71-1.23a48.22,48.22,0,0,1-.08-5.63l52.3,3.59c.13-2,.24-3.87.37-6l-52.53-3v-6.48l53.29,3c.29-1.83.57-3.62.92-5.81L402.87,407v-5.56c9.33.3,18.49.52,27.65.93s18.43,1,27.74,1.52c.39-1.58.75-3,1.2-4.83-19.24-2.13-38.34-2.55-57.47-3.58v-4.9c19.84.29,39.61-.74,59.32,2.57.57-1.44,1.16-2.95,1.89-4.81-20.5-2.2-40.83-2.46-61.16-3.26v-4.9c4.67,0,9.18-.11,13.68,0,16.32.48,32.69.32,48.88,3a1.73,1.73,0,0,0,1.3-.43c1-1,1.9-2.06,3.27-3.59-22.68-3.4-45.11-3.2-67.59-4.15v-4.72c2-.1,3.9-.23,5.82-.28a377.08,377.08,0,0,1,64.48,4.48c3.73.57,6.07-1.14,8.81-2.92-26.23-3.76-52.68-4.53-79.1-5.88v-4.47c2,0,4-.08,5.87,0,18.4.91,36.8,1.66,55.18,2.85,9.21.6,18.36,2,27.55,3a4.91,4.91,0,0,0,2.24-.42c1.8-.7,3.57-1.51,5.35-2.28a3.65,3.65,0,0,1-1.27,1.58c-5.8,3.8-11.57,7.65-17.47,11.29-1.68,1-1.86,1.9-.79,3.33s2.14,3.07,3.38,4.45c7.54,8.43,12,18.42,14.78,29.25.34,1.31.65,2.64.9,4s.35,2.49.52,3.74c-2.07-9.17-5.08-17.94-10-26a44.05,44.05,0,0,0-3.69-4.63c0,2.54,1.49,4.8.12,7.37-.26-1.22-.4-2.28-.69-3.3-1.42-4.79-5.52-8.55-9.55-8.8s-5.57,1.62-3.65,5.33a48.44,48.44,0,0,0,4.22,5.94c-5.94-2.26-8.65-8.53-5.3-12.75-1.43-.88-2.18,0-2.59,1.14-2,5.51-4,11-5.84,16.58a42.38,42.38,0,0,0-1.06,4.86c5.2,1.27,10.14,2.44,15.07,3.67s9.69,2.47,14.53,3.71l-.08.32-3.09-.4a6.14,6.14,0,0,0,0,.88c.09.49.22,1,.33,1.46,3.64,15.68,6.36,31.47,5.83,47.66-.37,11.37-2.42,22.36-7.48,32.64C477.46,513,465.15,523,450.1,530c-16.19,7.5-33.43,11.11-51,12.85-21.84,2.17-43.74,3.41-65.7,2.25a165,165,0,0,1-42-7.25c-24.21-7.77-41.1-23.32-50.18-47.1-8.43-22.07-10.08-44.87-6.75-68.13.22-1.58.52-3.14.84-5.05L225.44,421a17,17,0,0,1-.31-2.22c0-4.51-.11-9,.13-13.53a56.24,56.24,0,0,1,3.64-17c1.07-2.84,2.68-5,6-5.47a8.79,8.79,0,0,0,2.62-1c3.4-1.67,3.67-3.88.59-6-4.43-3.05-9-5.93-13.45-8.9-1.26-.83-2.47-1.73-3.7-2.6a13.71,13.71,0,0,1,3.71,1.13,5.64,5.64,0,0,0,2.25.47c16.64-1.43,33.26-3.09,49.91-4.3,13.22-1,26.48-1.43,39.72-2,3.85-.16,3.86,0,3.6,3.93,0,.12-.12.24-.27.53-26.88,2.2-53.94,3.69-81.23,7.89,2.94,2.2,5.31,3.34,8.6,2.53a72,72,0,0,1,11.28-1.48q28.5-2.37,57-4.6c1.46-.12,2.94,0,4.5,0v5.37c-23.15.82-45.93,3.86-68.77,6.44,1.34,3.3,3.22,5.17,6.8,3.59a1.54,1.54,0,0,1,.43-.06c19.18-1.84,38.37-3.71,57.56-5.49,4.42-.41,4.54-.15,4.24,4.34a7.5,7.5,0,0,1-.21,1.05c-21.15.26-41.88,3.33-62.78,6.49a20.7,20.7,0,0,1,1,2.25c.59,2,1.86,2.37,3.88,2.16q23.08-2.42,46.2-4.6c3.89-.37,7.81-.52,11.83-.79V395L262,400.62c.52,1.48,1,2.73,1.38,4,.3,1.1.79,1.42,2,1.26,11-1.46,22-3,33-4.19,6.62-.72,13.29-.94,19.94-1.39,1.41-.09,2.48.27,2.26,2-.18,1.42.51,3.22-2,3.46-12.92,1.24-25.82,2.57-38.72,3.91-4.75.5-9.49,1.12-14.39,1.7.48,2,.88,3.72,1.32,5.55l53.83-6.25c.18,2.58.34,4.82.5,7.16l-53.18,5.85.38,5.49,52.3-5.39.52,7L268.2,436.7l.41,5.19,52.63-6.17c.21,2.33.39,4.36.58,6.54l-52.58,6.48.71,5.38,51.7-6.36v7.43l-50.48,6.22,1.08,5.19,50.08-6.11c0,2-.06,3.69,0,5.39.06,1.25-.35,1.72-1.65,1.87-10.46,1.23-20.92,2.54-31.37,3.83L274,473.47l1.34,4.24,46.88-5.31v6l-44.71,5.49a11.6,11.6,0,0,0,1.09,2.67,2.74,2.74,0,0,0,1.89,1.11c9.43-.8,18.84-1.71,28.26-2.57,4.62-.42,9.23-.81,14.14-1.24,0,1.36,0,2.41,0,3.47.07,1.24-.44,1.75-1.7,1.89-8.47,1-16.93,2-25.4,3.05l-13.43,1.67c1.34,4,1.77,4.15,6,3.77,10.56-1,21.13-1.84,31.7-2.74.82-.07,1.65,0,2.58,0,.06,1,.05,1.68.15,2.38.32,2.2-.67,2.9-2.82,3.11-6.63.66-13.23,1.55-19.85,2.36l-10.73,1.32c1.85,2.11,3.21,3.86,6.18,3.56,5.71-.57,11.44-.79,17.17-1.13,3.34-.19,6.69-.34,10.22-.52l.73,4.76-21.8,1.4c.19.24.26.39.37.44a7,7,0,0,0,.81.28c6.65,2,13.43,1.89,20.25,1.22,3.31-.33,3.34-.35,3.76-3.62a8.33,8.33,0,0,0,.08-.86c.36-9.81,1.05-19.62,1-29.43-.12-23.44-.39-46.88-1-70.3-.38-14.62-1.45-29.21-2.28-43.81-.21-3.54-.71-7.06-1.11-10.86-34.82.34-69.15,3.49-103.5,5.83l-.69,1.68v-5.17a10.32,10.32,0,0,0,.36-1.2c1.69-9.51,3-19.11,5.12-28.52,6.45-28.52,15.07-56.44,24.51-84.09,4.35-12.74,9.17-25.31,13.86-37.93a4.36,4.36,0,0,1,2.07-2.5c8.26-2.66,15.55-7.26,23.13-11.29,14.64-7.77,29.58-14.91,45.81-18.71,5.95-1.39,12.15-1.79,18.26-2.49,1.84-.21,3.68.26,4.55,1.83l-6.59,9.4v-8l-9.33,1.09,1.17,7.45,2.57-.8c-1.62,1.62-2.6,1.53-3.76,0a18.46,18.46,0,0,0-3.75-3.74c-1.06-.8-2.43-1-3.17.21.21,1.21.44,2.14.51,3.07.09,1.22-.08,2.46.13,3.65.12.66.76,1.23,1.17,1.85.3-.67.85-1.33.85-2,0-1.81-.22-3.63-.36-5.44l.57-.32a31,31,0,0,1,3.44,3,39.06,39.06,0,0,1,2.76,4.19,10.78,10.78,0,0,1,1.07-1.83c.64-.68,1.56-1.86,2.05-1.72.93.25,1.67,1.27,2.42,2,.27.27.26.89.55,1.08,3.38,2.13,3.37,5.37,3,8.77a4.27,4.27,0,0,0,.12,1.82c.92,2.53,2.52,5,2.8,7.55.82,7.45,1.21,15,1.57,22.45.1,2.18.24,4.29,2.52,4.9,4.56,1.23,9.18,1.37,13.66-.59.06,0,.08-.19.13-.34l-1.95.2V219.87c0-3.73.19-4,4.24-4.87v12.42l.72.05a59.48,59.48,0,0,0,.57-6.64c-.13-7.26-.06-14.47,2.16-21.49,1.1-3.48,2.09-7,2.91-10.56,1.32-5.73-2.05-12.81-7-15.32-.36,3.28,4.57,4.09,3.71,7.74,0,.07.19.2.31.27,1.73,1.06,1.21,2.3.2,3.64,1.72,1.35,1.58,2.79.06,4.12-2.33,2-5.15,2.84-8.3,3.42V178.38h-8.39v14.91c-2.86-1-5.19-1.53-7.34-2.51-2.57-1.18-1.39-3.84-1.89-5.85S355,179,357.13,178c-.46-2.14,1-3.35,2.31-4.7a3,3,0,0,0,.76-2.24c-.39-2-1-3.75.95-5.48,1-.9.51-2.31-1-3.19v1.92C358.11,162.22,358.43,161.37,361.51,160.11ZM261.92,410.4c-2.4.68-1.77,2.84-2.05,4.44-2.36,13.44-3.86,26.93-2.08,40.6,2.59,19.91,11.48,36.25,27.27,48.74a11.16,11.16,0,0,0,1.21.79c-2.52-4.23-5.48-8.4-7.65-12.94-9.31-19.45-12.52-40.21-12.66-61.56A72.58,72.58,0,0,0,263,411.64c-.13-.47-.77-.8-1.17-1.2.1-.67.46-1.43.26-2q-2.61-7.14-5.42-14.22c-.64-1.61-1.58-3.11-2.59-5.05-.8,5.55-3.79,9.4-7.87,10.4a9.66,9.66,0,0,0,1.33-1.22,37.43,37.43,0,0,0,3.83-5.62c1.26-2.67.11-4.54-2.84-4.38a13,13,0,0,0-6.16,2c-3.47,2.26-5.18,5.78-5.65,9.9-.93-4,.44-7.44,3.09-10.42,3.32-3.73,7.51-4.6,12.74-3a5.49,5.49,0,0,0-2.57-1.52,18.86,18.86,0,0,0-15.65,4.3c-4.43,3.7-8.66,7.63-8.12,14.25.1,1.2-.15,2.43-.13,3.65.06,3.75.18,7.51.28,11.51,2.9-1,5.38-1.88,7.9-2.65C243.33,413.56,252.43,411.05,261.92,410.4Zm114.84,41.48-.07-.05,1.63,2.07c.64,4.57,1.4,9.15-.43,14.13l16.86-3.58v-14c-1.13.29-1.87.51-2.62.66q-6.92,1.42-13.85,2.81c-.15-2.14-.28-4.28-.46-6.41-.1-1.17.44-1.5,1.56-1.78,4.58-1.14,9.12-2.42,13.66-3.73a1.79,1.79,0,0,0,1.12-1.22c.09-3.41,0-6.83,0-10.6a40.44,40.44,0,0,1-16.27,3.55V427c4.17-1.21,8.17-2.28,12.11-3.53,4.14-1.31,4.11-1.39,3.62-5.73L378.54,422l-.39-.89a12.84,12.84,0,0,1,2.06-1.29c4-1.54,8-3,12.05-4.52a3,3,0,0,0,2.12-3.26c.2-16.19.51-32.39.74-48.59a30.09,30.09,0,0,0-.6-4.46c-2.17.7-3,1.84-2.85,4,.23,3.35.17,6.73.1,10.1-.15,6.7-.38,13.41-.58,20.11h-.68V361.48c-2.68,1-4.88,2.32-7.22,2.74-3.27.59-4.69,2.13-4.28,5.39,0,.1-.15.23-.15.22a87.91,87.91,0,0,0-9.43,2.51c-4.12,1.6-6.93-1.19-10.77-2.24,6.42-3.15,12.44-5.69,19.12-5.71a15.87,15.87,0,0,0,6.9-1.82c1.23-.58,2.43-1.24,3.6-1.93,2.41-1.43,2.63-2.19,1.53-4.95a65.25,65.25,0,0,1-7.29,3.09c-2.15.65-3.58,1.49-3.35,4,0,.09-.16.2-.25.3l-.11-.54L366.49,365a1.75,1.75,0,0,1-1,0c-2.12-1.09-4.2-2.24-6.77-3.63L379,354.89c.13-2.3-.64-3.84-2.61-3.88-3.19-.06-6.39.19-9.59.31l0,.4,1.76,1.11-5.85,2.25H375c-2.65.84-5.33,1.53-8,2.11a3.67,3.67,0,0,1-1.87-.23c-3.23-1.16-6.52-2.21-9.64-3.62a13.83,13.83,0,0,0-7.73-1,3,3,0,0,0-3,3.22c0,.7,0,1.39,0,2.32a14.09,14.09,0,0,1-2.43-.75c-2.91-1.53-5.87-3-8.63-4.78-1.67-1.08-2.93-.78-5,.5l14.35,8.4c-4.49-.59-9-3.37-13.77-6.11.21,1.83-.63,3.66,1.41,4.76,3.59,1.92,7.13,3.91,10.7,5.87.41.22.84.42,1.27.63l-.31.7-12.75-5.41c.58,13.13,1.14,26.34,3.85,39.36-4-13.52-4.66-27.56-6.42-41.48a11.21,11.21,0,0,0-.74,4.13c.39,6.94.9,13.87,1.33,20.81.57,9.3,1.14,18.59,1.63,27.89a2.71,2.71,0,0,0,2.07,2.84c6.21,1.9,12.43,3.79,18.64,5.73a12.38,12.38,0,0,1,2,1.09,6.5,6.5,0,0,1-2.37.46c-4.69-1-9.36-2.08-14-3.27-2-.5-3.84-1.35-5.81-2.06-.16,6-.92,4.91,4.48,6.9a2.72,2.72,0,0,0,.62.17c5.08.85,10.17,1.67,15.24,2.56.67.12,1.77.5,1.83.88.33,2.23.42,4.5.59,6.9-8,.52-15.26-1.32-22.41-3.85v12.76l23.88,3.7c-.16,2.46-.32,5-.51,8l-23-3.37c0,3.87-.07,7.59.07,11.3,0,.54,1,1.35,1.59,1.5,4.11,1,8.23,1.92,12.4,2.6,3.33.55,6.72.71,10.48,1.08a20.77,20.77,0,0,1-.78-13c.83-3.36,1.15-3.94,4.58-4C364.76,451.32,370.76,451.69,376.76,451.88Zm4.56-97.72c2.12-1.29,3.83-2.17,5.37-3.29a41.48,41.48,0,0,0,11.57-12.3,125.47,125.47,0,0,0,12.68-30.45c.41-1.48.81-3,1.21-4.4a74,74,0,0,0,3.35,7.88,3.28,3.28,0,0,0,5.86-.47,30.89,30.89,0,0,0,1.54-4.46c1.52-5.07,3-10.16,4.5-15.23,1.21-4,2.55-7.9,3.76-11.87a21.69,21.69,0,0,0-.77-14.33c-1.59-4.21-4.16-5-7.83-2.31a64.1,64.1,0,0,0-5.12,4.55c-1.64-.44-1.55-1.61-1.3-3,1-5.75,2.78-11.47.53-17.57-.4,2.7-.77,5.2-1.26,8.48a15.39,15.39,0,0,1-2.67-2.3c-5-7.31-11.15-13.14-20.2-14.93a103.47,103.47,0,0,0-12.09-1.83c-12.55-.94-25.08-.17-37.58,1-8.78.79-17.55,2-25.87,5.05-2.75,1-5.77,2.4-7.62,4.53a26.21,26.21,0,0,0-6.59,18.28,9,9,0,0,1-.75,2.57c-1.54-1.37-2.65-2.38-3.78-3.37-4.87-4.25-9.87-3-12.06,3.15a18.57,18.57,0,0,0-.65,11c.85,3.41,1.61,6.84,2.6,10.21q3.54,12,7.32,24a3.83,3.83,0,0,0,2.13,2.14,5.37,5.37,0,0,0,6.8-4.14,31.59,31.59,0,0,0,.31-6c-.06-1.95-.42-3.88-.64-5.82a4.17,4.17,0,0,1,1.54,2.17c2.19,6.89,4.09,13.89,6.55,20.67A56.15,56.15,0,0,0,339,353c1.09.59,2.22,1.09,3.14,1.54.52-1.7,1-3.14,1.44-4.73l-2-4.56c1.19,1.12,1.86,2.53,2.94,3.51a5,5,0,0,0,3.2,1.24c8.31-.28,16.61-.85,24.92-1.08,3.17-.08,4.85-1.72,6-4.27a22.84,22.84,0,0,0,.82-2.5,6.42,6.42,0,0,1-.25,3.16,28.76,28.76,0,0,1-1.49,3.17C381.05,348.66,381.34,351,381.32,354.16Zm-128.1,58.58a1.48,1.48,0,0,0-.44-.05c-2.15.54-4.28,1.27-6.46,1.6-2.56.37-3.53,1.8-4,4.19a129,129,0,0,0,2,59.19c6.29,23.7,21.07,39.69,43.93,48.44,16.93,6.47,34.55,9.22,52.51,10.3a309.5,309.5,0,0,0,53.67-1.72c15.56-1.78,30.87-4.78,45.48-10.65,10.27-4.13,19.67-9.61,27.5-17.6,9.68-9.86,13.77-22.3,16.29-35.38,2.12-11,1.72-22.16.19-33.2-1-7.57-2.81-15.05-4.35-22.55a2.7,2.7,0,0,0-1.44-1.78c-1.89-.54-3.87-.78-6-1.18.1.82.18,1.37.25,1.92,1,8.17,2.32,16.32,2.78,24.52.7,12.69-1.26,25.13-4.7,37.37-4.17,14.89-13.68,25.24-27,32.43-15.09,8.15-31.51,11.67-48.38,13.26a355.44,355.44,0,0,1-55.85.93,194.7,194.7,0,0,1-41.9-6.87c-23.11-6.63-37.35-21.71-43.34-44.78A121.77,121.77,0,0,1,253.22,412.74ZM329.4,191.49l1.69,1.5.51-.16c-.18-2.22-3-4.07-.64-6.9l-5.76-.51c-.1-1.34-.9-3.39-.2-4.49,1.15-1.84,3.49-2.26,5.7-1.88,1.22,2-1.31,4.94,2.38,6.15l-1.6-7.76c-2.23.67-4,1.33-5.91,1.74s-2.15,1.31-1.8,3q3.64,18.12,7.15,36.26c.52,2.63,1,5.27,1.52,8.18l-6.56.72-11.94-43.9-8.1,3.54c4.8,14.27,9.48,28.21,14.2,42.22-1.57.62-2.62,1.07-3.7,1.45s-2.14.65-3.37,1c-3.71-14.27-8.78-27.72-17.3-39.83L289,195.33c1.85,2.56,3.78,4.88,5.32,7.43,5.77,9.57,9.6,20,13.26,30.48a2.44,2.44,0,0,1-.26,1.94c-1,1.37-2.2,2.6-3.62,4.22-.64-2.21-1.06-3.72-1.52-5.21-3.94-12.76-10.67-23.74-20.86-32.46-.58-.5-1.62-1.13-2.14-.92-4.07,1.64-8.06,3.47-12.38,5.38A51.24,51.24,0,0,1,285,217.26,78.47,78.47,0,0,1,298.1,234a96,96,0,0,0-12.64-22.14,10.62,10.62,0,0,1,2.1,2.08c6.44,8.09,11.11,17.16,14.95,26.72a5.65,5.65,0,0,1-.77,6c-.4-.77-.67-1.42-1-2-3.33-5.43-6.48-11-10.07-16.22a22.7,22.7,0,0,0-12-9c-4.83-1.51-9.83-2.49-14.77-3.62a1.77,1.77,0,0,0-1.56.6c-1,2.48-1.95,5-3,7.82,1.06,0,1.75,0,2.45,0,5.09.15,10.17.36,15.26.45a12.91,12.91,0,0,1,10.61,5.09c4.15,5.39,8.27,10.8,12.47,16.15,1.34,1.71,1.42,3.3.17,5-1.84-2.59-3.51-5.35-5.6-7.75s-4.63-4.49-7-6.72c2.75,8.19,8.52,14,14.18,20.15.53-1.56.94-2.86,1.4-4.12,2.18-6,6.14-10.12,12.26-12,2.8-.87,5.6-1.81,8.47-2.4,5.28-1.09,10.62-1.94,16.31-2.95-7.35-3.27-7.55-9.26-6.61-15.73.58-3.95,1.08-7.91,1.54-11.33a17.72,17.72,0,0,1,.26,2.79c-.06,2.14-.33,4.28-.42,6.43a68.88,68.88,0,0,0-.22,9.19c.32,3.52,2.71,5.57,6.1,6.38,4.82,1.15,8.15-.53,10.39-5,1.58-3.13,1.21-6.08-.32-9a18.4,18.4,0,0,1-.09-17.73,2.16,2.16,0,0,0,.17-.66c-4.73,2.83-4.91,7.64-4.94,12.59a3.82,3.82,0,0,1-.57-2.07c.08-2.22.25-4.43.37-6.65.07-1.41-.56-2.24-2.31-2.49V209c-1.91-2.36-.54-5.72-3-8.31l-.39,2.9-2.15-.69c.2,3.63.38,6.88.56,10.13l-.53.06c-.2-.87-.46-1.73-.58-2.61-.26-1.85-.41-3.71-.7-5.55a4.68,4.68,0,0,0-.76-1.37,5.33,5.33,0,0,0-1.09.81c-.88,1.12-1.65.45-2-.31a24.17,24.17,0,0,1-1.95-5.84C330.73,195.92,331.39,193.47,329.4,191.49Zm43.29,41.79c6,.71,11.89,1.2,17.66,2.14,7.94,1.29,14.88,4.61,20,11.06,1,1.26,2.1,2.44,3.14,3.63,1.34-6.13,2.42-12.18,4-18.09,2.19-8.22,5.34-16.06,11.09-22.56A26.31,26.31,0,0,1,439,202l1.29,7.16,5.6-2.24a14.47,14.47,0,0,1-1-2.23c-.9-3.36-3-4.32-6.35-3.75a12.85,12.85,0,0,1-5.72,0c-1.37-.42-2-.14-2.68.71-1.7,2.3-3.69,4.49-4.86,7-4.18,9.1-8.07,18.33-12.07,27.52-.3.68-.6,1.36-1,2.27-1.16-1.11-2.07-2-3-2.88a4.57,4.57,0,0,1-1.35-5.36c1.22-3.81,2-7.78,3.17-11.6,2.74-8.73,5.19-17.63,12.18-24.47L417,190.4c-.87,1.42-1.7,2.59-2.35,3.85a114.21,114.21,0,0,0-11.56,36.15,37.93,37.93,0,0,1-4-1.06c-1.9-.72-2.87-1.82-2.44-4.24,2.39-13.72,3.95-27.63,9.36-40.79l-7.38-3.46c-1.7,6.61-3.36,12.83-4.86,19.08a9.56,9.56,0,0,0,.11,3.76c.46,2.72.76,5.37-.61,8a8.11,8.11,0,0,0-.9,3c-.33,3.9-.54,7.8-.81,11.86l-7-.52c.18-3.57.34-6.9.51-10.32l-3.78-.19a17.29,17.29,0,0,1,2.29-.42,34.69,34.69,0,0,0,6.78-1.8,6,6,0,0,0,2.71-7.78l-2.61,2.06c2.05-2.1,2.82-3.92,1.79-6.23a12.28,12.28,0,0,0-9.58-7.46c-.47-.08-1,.43-1.94.85,4.75,2.32,9.85,3.25,10.45,9.06-.77-3.69-5.25-7.13-10.4-7.53l-1.55,5.62a35,35,0,0,1,4.25,1.33,2.22,2.22,0,0,1,1,1.68c0,.37-.83,1.11-1.3,1.11a42.14,42.14,0,0,1-4.6-.4,10.41,10.41,0,0,0-.4,2c-.11,5.37-.21,10.74-.25,16.1C377.93,227.77,376.73,231.26,372.69,233.28ZM330.34,497c-.41,4.91-.86,9.75-1.16,14.59,0,.4.93,1.17,1.49,1.24,4.76.58,9.52,1.26,14.31,1.49,15.75.77,31.51.81,47.2-1.12,2.29-.28,4.53-.93,6.58-1.37-.43-3-.84-5.52-1.14-8.07s-.47-5.05-.71-7.65C374.57,500.28,352.51,502.4,330.34,497Zm.07-24.58c0,4.48.09,8.69,0,12.9-.06,1.66.34,2.37,2.06,2.74a130.41,130.41,0,0,0,41.21,2.65c7-.72,13.95-2.32,20.91-3.61.65-.12,1.69-.91,1.68-1.37-.1-4-.41-8-.66-12.12A151.81,151.81,0,0,1,363,477.49,94.07,94.07,0,0,1,330.41,472.42Zm114.06,25.64.4.4c1.32-.95,2.71-1.83,4-2.87,5.07-4.22,8.49-9.66,11.14-15.61,5.63-12.64,7.77-26,8-39.74A105.09,105.09,0,0,0,465,413a3.24,3.24,0,0,0-1.39-2.07,26,26,0,0,0-4.7-.92c-.65,8.23-1.38,16.12-1.86,24-.55,9.22-.58,18.48-1.41,27.67-1,11-3.48,21.63-8.54,31.54C446.28,494.87,445.35,496.45,444.47,498.06ZM221.24,352.14l100.88-4.63c-.65-2.33-1.12-4.41-1.84-6.4-.56-1.57-1.76-2.06-3.56-1.94-20.94,1.47-41.88,2.83-62.82,4.23q-14.9,1-29.8,2.07c-.64,0-1.68.47-1.8.92A57.84,57.84,0,0,0,221.24,352.14Zm183.07-20,88.1,3.71-1.3-4.39c-1-3.37-1-3.33-4.6-3.52-12.51-.66-25-1.36-37.54-2q-19.74-1.06-39.48-2.1c-.6,0-1.57.25-1.78.68C406.52,326.89,405.5,329.39,404.31,332.13Zm-179.93,4.36,88.85-7.43c-.66-1.65-1.18-3-1.71-4.3-1.21-3.05-1.2-3-4.39-2.75q-21.44,1.67-42.88,3.26c-12.08.91-24.16,1.78-36.23,2.74a2.5,2.5,0,0,0-1.86,1.21C225.45,331.46,225,333.78,224.38,336.49ZM495.27,346c-11.27-.36-22.16-.45-33-1.11-20.37-1.23-40.73-2.8-61.1-4.21-.54,0-1.35-.07-1.59.24-1.5,1.89-3.65,3.61-2.2,7.06l99.8,5.25C496.39,350.25,495.8,348,495.27,346ZM228.66,319.33l65-4.43c-.5-2.46-1-4.82-1.45-7.2-.33-1.87-1.29-2.3-3.13-2.14-10.71.94-21.43,1.74-32.15,2.61-8.07.65-16.14,1.31-24.21,2-.63.06-1.61.53-1.77,1C230.07,313.8,229.44,316.44,228.66,319.33Zm191.19-3.82,66.9,1.58c-.76-2.4-1.5-4.49-2.05-6.62-.32-1.23-1-1.49-2.15-1.53q-27.81-.94-55.61-2a1.85,1.85,0,0,0-2.24,1.61C423.9,311.35,423.21,314.31,419.85,315.51Zm7.57-17,53.8,1.2c-.94-2.84-1.83-5.32-2.56-7.85a2.06,2.06,0,0,0-2.28-1.72c-3.22,0-6.45-.12-9.67-.22-11.31-.35-22.62-.73-33.93-1-.82,0-2.15.38-2.38.95C429.28,292.58,428.46,295.39,427.42,298.54ZM234.07,300l54-3.44c-.71-2.44-1.41-4.47-1.89-6.56-.33-1.44-1.06-1.73-2.42-1.62-4.06.33-8.14.53-12.21.78-11.15.69-22.29,1.36-33.43,2.12a2.47,2.47,0,0,0-1.78,1.28C235.52,294.86,234.91,297.22,234.07,300Zm12-38.1c17-.36,33.61-.82,50.22-4.06-1-1.94-1.75-3.54-2.58-5.12s-1.95-2.54-3.94-2.24c-1.7.26-3.43.24-5.15.33-11.17.54-22.33,1.11-33.51,1.57a2.31,2.31,0,0,0-2.52,2C247.88,256.78,247,259.12,246,261.93Zm222-.45c-1.06-2.9-2-5.59-3-8.21-.16-.4-1-.72-1.56-.71q-20.73.65-41.46,1.4a1.88,1.88,0,0,0-1.46.84c-.73,2.57-1.31,5.18-2,8a50.22,50.22,0,0,1,5.06-3c3-1.32,5.54-.74,7.23,1.76a3.11,3.11,0,0,0,3.21,1.43c8.45-.38,16.9-.7,25.35-1.06C462.19,261.79,465,261.64,468.08,261.48Zm-34.53,19.2h41.28c-.9-2.63-1.8-5-2.54-7.45-.36-1.2-1-1.48-2.18-1.47-10.09,0-20.19,0-30.28,0h-5.37ZM283,278.53v-8.14l-5.2.27c-11.16.61-22.31,1.21-33.47,1.87-.67,0-1.72.39-1.9.86-1,2.56-1.74,5.2-2.66,8.07Zm178.22-35.65c-1.16-3-2.08-5.53-3.19-8a2.12,2.12,0,0,0-1.71-1c-7,.81-13.93,1.64-20.87,2.66-3.85.56-7.65,1.48-11.59,2.27-.64-3.86-1.26-7.59-1.94-11.72-3.34,6.07-1.47,12-1.83,18.1ZM361.93,469.29c.19-2.45.38-4.86.57-7.28.54,2.15.74,4.33,1.14,6.48.11.57.86,1,1.31,1.54l.58-.41.66-9.72.34,0c.33,3.25.66,6.5,1,9.84.58,0,1.21,0,1.22-.13.43-2.68.8-5.37,1.23-8.47.37,2.92.68,5.45,1,8.27.78-.45,1.46-.64,1.78-1.09s.21-1.09.28-1.65.13-1.12.2-1.68l.22,0,.62,2.84c3.5-2.35,4.39-6.18,2.69-11-1.22-3.51-2.93-4.48-6.57-3.68a7,7,0,0,0-2,.73,3,3,0,0,1-2.91.11c-7.26-2.69-9.48-1.1-10.46,5.89-.26,1.89.6,4,1.27,5.92.32.91,1.41,1.55,2.44,2.61.23-1.57.37-2.53.52-3.49C360.41,466.19,358.53,469.22,361.93,469.29ZM430.2,228.48l23.61-4c-1.25-2.88-2.32-5.51-3.58-8.06a2.21,2.21,0,0,0-1.85-.75c-3.26.4-6.52.88-9.75,1.49a2.23,2.23,0,0,1-2.68-1.08c-1.3-2-2.7-4-4.26-6.23-1.54,2-3,3.76-4.29,5.61a2,2,0,0,0-.26,1.57C428.09,220.73,429.12,224.45,430.2,228.48ZM287.66,240.93a43.69,43.69,0,0,0-2.42-4.8,3.28,3.28,0,0,0-2.24-1.38c-8.75,0-17.49.06-26.23.19A2.29,2.29,0,0,0,255,236c-.88,2.09-1.55,4.28-2.38,6.66Zm58.45-39.8.69-.93c-2.09-2.66-4.12-5.37-6.31-7.94-.86-1-1.7-2.63-3.6-1.44-.17.11-1-.5-1.26-.92a11.77,11.77,0,0,1-.88-1.9l-.52-.07a14.74,14.74,0,0,1-1,3.66c-1.8,3-1.54,6.13-.44,9.2.83,2.33,1.77,2.4,3.45.63,2.43-2.56,3.19-2.71,6.62-1.41C343.92,200.42,345,200.76,346.11,201.13Zm.75-15.7-.6-.15c-.42.54-.82,1.11-1.28,1.62-1.75,1.95-1.53,2.65.43,4.45a21.41,21.41,0,0,1,3.27,4.4c.25.38,0,1.09,0,1.65-.89-1.06-1.14-2.35-1.93-3-2.73-2.39-5.65-4.56-8.49-6.82l-.53.46a14.66,14.66,0,0,0,1.72,2.3c3.14,2.83,6.32,5.6,8.07,9.59,4.72-2.5,5.91-10.14,2.18-12.94L347,188Zm39.91,8.84c.46-2.83.9-5.43,1.29-8,.29-1.92-2.21-4-4.07-3.3a1.53,1.53,0,0,0-.89,1c-.34,3-.59,6-.87,9Zm-32.91,30.12c-.86,3.86-2.12,7.37-5.87,10.13l11.32-.59c-3.15-1.86-3.67-4.76-3.51-7.88C355.88,224.58,355.41,224.06,353.86,224.39Zm36.28,127.37-10.89,5.65.34,2c3.46-2,6.63-3.72,9.71-5.6C389.77,353.56,389.83,352.59,390.14,351.76Zm-.61-172.47c-.28-1.07-.29-2.13-.63-2.26-3.85-1.36-7.74-2.58-11.62-3.84l-.36.93Zm3.66,174.37c-2.58.91-1.37,2.85-1.48,4.5C394.23,357.15,394.25,357.07,393.19,353.66Z" transform="translate(8.82 -13.82)"/><path class="cls-7" d="M487.66,401.08c1,3.22,2.09,6.45,3.34,10.3l-23-5.26.11-.51,21.71,4.61c-1-3.21-1.83-6-2.69-8.86Z" transform="translate(8.82 -13.82)"/><path class="cls-7" d="M354.75,192.82l7.44,2.9v18.22c-2.11-.62-3.61-1.3-4-3.76C357.19,204.41,355.92,198.7,354.75,192.82Z" transform="translate(8.82 -13.82)"/><path class="cls-7" d="M371.35,214.36V195.22l7.24-2.29c-.5,2.09-1,4-1.38,5.9-.78,4.27-1.33,8.6-2.31,12.83-.27,1.19-1.72,2.1-2.64,3.14Z" transform="translate(8.82 -13.82)"/><path class="cls-7" d="M362.8,231c-3.6.11-4.14-.38-4.15-3.62V215.83c3.62,0,4.12.53,4.14,3.7C362.81,223.31,362.8,227.09,362.8,231Z" transform="translate(8.82 -13.82)"/><path class="cls-7" d="M361.37,276c0-2.93.11-5.88,0-8.81a18.53,18.53,0,0,1,4.51-12.87A19.73,19.73,0,0,0,367,251.7c.63-1.07,1.17-2.49,2.15-3,6-3.15,12.18-5.82,19-6.43a21.69,21.69,0,0,1,22.07,12.53c1.55,3.26,2.37,6.88,3.46,10.36a10.39,10.39,0,0,1,0,2.32l-2.05-2c-.39,3-.85,5.81-1,8.63,0,.62.72,1.5,1.35,1.93,1.58,1.08,2,2.43,1.5,4.4L410.32,278c-1.86,8.26-3.52,16.41-5.56,24.47s-4.6,16.11-9.45,23.18c-.07-.19-.18-.36-.14-.44,6.32-10.59,8.85-22.45,11.34-34.3.87-4.13,1.47-8.32,2.08-12.5a2.29,2.29,0,0,0-.75-1.88c-2.94-1.76-6-2.92-9.58-2-7.06,1.8-14.27.83-21.42.81-2,0-4,0-6,0s-2.56-.79-1.78-2.54c2.78-6.24,7.09-10.8,14.13-11.94,7.37-1.2,13.7.66,18.71,6.57,2,2.36,4.58,4.23,7.35,6.73.46-4.38.9-8.11,1.21-11.86a3.77,3.77,0,0,0-.66-2c-4.72-8.23-14.48-16.23-27.77-11.76-4.47,1.5-9.19,2.68-13.2,5a13.63,13.63,0,0,0-6.41,10.27c-.48,4-.5,8.14-.73,12.22Zm30.05-4.43c1.74,0,3.71,0,5.68,0,.62,0,1.76-.44,1.76-.68a3.12,3.12,0,0,0-.72-2.28c-1.78-1.31-3.76-2.35-5.64-3.49C392.11,267.43,391.79,269.34,391.42,271.54Zm-13.49-4.74-4.48,4.62.37.47h5.68C379,270.28,378.55,268.81,377.93,266.8Zm9.82,1.81c.74-.83,1.69-1.52,1.58-1.85a2.38,2.38,0,0,0-1.61-1.44c-.46-.06-1.4.81-1.46,1.34S387,267.74,387.75,268.61Z" transform="translate(8.82 -13.82)"/><path class="cls-7" d="M306.66,275a73.71,73.71,0,0,0,6.64-5.61c6.9-7.38,17-9.84,25-5.82,4.08,2.06,6.73,5.5,8.65,9.51a3.2,3.2,0,0,1-.1,2.59c-.22.38-1.48.22-2.27.23-3.42,0-6.87-.26-10.24.16a66,66,0,0,1-18.83-.21,10.24,10.24,0,0,0-8,2.25,2.77,2.77,0,0,0-.74,2.17c1.66,18.06,6.85,34.92,17.23,50,.07.1.06.26-.22.74-.19-.3-.36-.61-.56-.9s-.51-.69-.75-1.05c-9-13.23-14-27.93-16.42-43.65-.36-2.39-1-4.76-1.23-7.16-.18-1.68.13-3.42,0-5.11s-.56-3.45-.82-5.18a3.74,3.74,0,0,1,0-1.49c1.44-5.42,3.16-10.71,6.5-15.33,3.83-5.32,9.29-7.18,15.5-7.38a44.24,44.24,0,0,1,19.45,3.73A16,16,0,0,1,349,249.7c1.66,1.37,1.56,2.07-.43,3.79,7.44,6.17,7.6,14.75,7.5,22.87-.45-3.5-.74-7.57-1.55-11.52a16.87,16.87,0,0,0-8.12-11.43c-4.38-2.4-9.73-3.23-14.76-4.19a38,38,0,0,0-9.83-.16c-4.73.36-8.24,3-10.91,6.82C306.7,262,305.22,268.07,306.66,275Zm15.72-7.53-5,4.66.35.9,7,.42Zm13.95,5.18,4.53-1.26.12-.73-3.44-3.24Zm-2.4-5.28c-1.11-.74-1.71-1.46-2.26-1.42s-1.13.78-1.69,1.22c.51.49,1,1.29,1.53,1.38S332.73,268,333.93,267.35Z" transform="translate(8.82 -13.82)"/><path class="cls-7" d="M296.11,298.19c1.76-1.88,2.76-1.75,3.78.49,1.62,3.59,1.09,7.14-.41,10.6-.26.59-1,1-1.54,1.43a7.82,7.82,0,0,1-.1-2.25c.52-2.27,1.33-4.47,1.73-6.76.16-.87-.5-1.88-.79-2.83l-.87,0-1.61,4.53a52.2,52.2,0,0,1-3.3-5.07,11.78,11.78,0,0,1-1.33-4.53,48.62,48.62,0,0,0-2.58-13.65A69.91,69.91,0,0,1,287,271a6.44,6.44,0,0,1,.11-2.35c.32-1.79.75-3.66,2.7-4.31s3.24.79,4.35,2.1a27.08,27.08,0,0,1,5.73,11.68c-2.31.71-3.66-.34-4.55-2s-1.41-3.44-2.23-5.11c-.64-1.3-1.49-2.5-2.24-3.75l-.93,0c-.3,1.2-1,2.45-.82,3.6a35.12,35.12,0,0,0,1.55,6.44,38.61,38.61,0,0,1,1.75,15C292.17,295.43,294.54,296.45,296.11,298.19Z" transform="translate(8.82 -13.82)"/><path class="cls-7" d="M422.73,296.07c2.58-3.47,2.93-7.76,2.59-12.17-.32-4.19-.81-8.37-1.26-12.89l-5.91,6.19c2.66-5.06,4.86-10.43,10.73-13.48a13,13,0,0,1,.59,3.18c-.82,9.91-1.74,19.82-4.88,29.35a29.35,29.35,0,0,1-2.23,4.27,35.44,35.44,0,0,0-2.86-5c-1.36-1.64-3.2-1.05-5.26-.5a12.52,12.52,0,0,1,1.67-3.26c3.07-3.19,3.28-6.6,1.29-10.37a8.34,8.34,0,0,1-.45-1.36l.59-.25c.87,2.18,2.41,4.35,2.4,6.52s-1.56,4.37-2.33,6.28Z" transform="translate(8.82 -13.82)"/><path class="cls-7" d="M341.82,324.09a5.52,5.52,0,0,1,.88.7c3.54,4,8.14,5.72,13.32,6.09,4.81.34,9.61.31,14.23-1.36,3.53-1.28,6.46-3.3,8.17-7.3-1.84.17-3.41.37-5,.45-3.84.19-7.68-.1-11.47,1.17-1.62.55-3.72.13-5.49-.31a20.93,20.93,0,0,0-8.7-.46,34.74,34.74,0,0,1-5.41.05c3.87-1.72,10-2.55,13.84-1.77a17.58,17.58,0,0,0,8.06-.19c1.86-.47,3.94-.18,5.92-.11,2.22.09,4.43.32,6.64.49s2.74.95,1.46,2.67c-1.43,1.9-3.08,4-5.13,5-8.51,4.16-17.26,4.1-25.93.33A11.43,11.43,0,0,1,341.82,324.09Z" transform="translate(8.82 -13.82)"/><path class="cls-7" d="M373.38,345.37c-.73-2.7-1.46-5.58-2.3-8.42a2.73,2.73,0,0,0-2.92-2.05c-4.37.13-8.74.25-13.1.41a3.73,3.73,0,0,0-3.73,3c-.54,2-.94,4-1.52,5.92-.23-3-.19-6.1,1.77-8.65a4.72,4.72,0,0,1,3.16-1.51c4.64-.31,9.29-.45,13.93-.46a3.71,3.71,0,0,1,2.69,1.4A14.72,14.72,0,0,1,373.38,345.37Z" transform="translate(8.82 -13.82)"/><path class="cls-7" d="M301.13,280.48a36.37,36.37,0,0,1-1.27,3.73,8.87,8.87,0,0,0,.93,9.87,11.24,11.24,0,0,1,1.51,3.51,7.28,7.28,0,0,1-.27,2.32c-2.69-5-3-10.93-8.8-12.7l7.35-7Z" transform="translate(8.82 -13.82)"/><path class="cls-7" d="M353.56,304.4c-1.44-.23-3.2.3-3.32-1.89-.1-1.76,2.33-4.37,4-4.43s2.93,1.85,2.87,4.35C357.07,305.14,354.71,303.76,353.56,304.4Z" transform="translate(8.82 -13.82)"/><path class="cls-7" d="M362.35,304.42c0-2.89-.21-5.13,1.92-6.09.73-.32,2.47.63,3.15,1.48s.6,2.29.86,3.48Z" transform="translate(8.82 -13.82)"/><path class="cls-7" d="M348.59,293.45c-2.79,3-3.46,6.2-2,8.64.87,1.47,1.51,1.78,8,3.93-2.92,1.28-8.53-.51-9.78-4.12A6.55,6.55,0,0,1,348.59,293.45Z" transform="translate(8.82 -13.82)"/><path class="cls-7" d="M369.8,293.65c3.68.58,4.73,4.94,3.67,8.09-1.16,3.42-5.8,5.63-9.32,4.39,3.46-.63,6.78-1.58,8-5.24C373,298.16,372.5,295.47,369.8,293.65Z" transform="translate(8.82 -13.82)"/><path class="cls-7" d="M347.53,316.33a10.08,10.08,0,0,1,7.12-3.15c3.48,0,7-.37,10.44-.4,4.64,0,8.49,2.05,12.09,4.75-2.87-1.2-5.66-2.55-8.57-3.51a14.3,14.3,0,0,0-4.59-.22c-2.64.06-5.3.52-7.89.24a11.53,11.53,0,0,0-7.34,1.7C348.39,316,348,316.14,347.53,316.33Z" transform="translate(8.82 -13.82)"/><path class="cls-7" d="M316.93,262.32c4.86-5.2,21.55-6.23,28.51,3.77C336.45,257.79,327,257.42,316.93,262.32Z" transform="translate(8.82 -13.82)"/><path class="cls-7" d="M376.27,260.37c6.74-5.91,19.08-4,24.18,3.62-3.19-3.23-6.71-5.82-11.43-6.16C384.54,257.5,380.24,258,376.27,260.37Z" transform="translate(8.82 -13.82)"/><path class="cls-7" d="M353,288.86c1.32-1.63,2.57-3.32,4-4.87a2.55,2.55,0,0,1,3.84-.28c1.83,1.58,3.53,3.31,5.29,5l-.41.42c-1.56-1.43-3.13-2.84-4.67-4.29s-2.94-1.16-4.24.33c-1.15,1.33-2.28,2.67-3.42,4Z" transform="translate(8.82 -13.82)"/><path class="cls-7" d="M340,254.22c3.59,2.52,5.93,5.78,6,10.35A17.94,17.94,0,0,0,340,254.22Z" transform="translate(8.82 -13.82)"/><path class="cls-7" d="M374.05,254.64,368.31,264A15.9,15.9,0,0,1,374.05,254.64Z" transform="translate(8.82 -13.82)"/><path class="cls-7" d="M345,356.87l19.44,8.83c-2.84,1.19-5.13,2.16-7.43,3.11a1.82,1.82,0,0,1-1,.22c-3.16-.89-6.32-1.81-9.45-2.8a1.58,1.58,0,0,1-.7-1.15C345.54,362.54,345.31,360,345,356.87Z" transform="translate(8.82 -13.82)"/><path class="cls-7" d="M368,381.91l-2.26,4.51c-3.45-1.62-6.65-3.28-10-4.63a21.88,21.88,0,0,0-5.82-1.39c-1.7-.19-2.42-.81-2.33-2.51a23.93,23.93,0,0,0-.27-2.94C355,375.34,361.29,378.74,368,381.91Z" transform="translate(8.82 -13.82)"/><path class="cls-7" d="M352.59,408.33l16.14,4.81L366,419c-4.28-1.46-8.43-2.85-12.55-4.3a1.55,1.55,0,0,1-.87-1c-.23-1.53-.34-3.07-.49-4.61Z" transform="translate(8.82 -13.82)"/><path class="cls-7" d="M350.06,396.59c8.49.44,15.14,3.86,20.81,9.62l-1.45,2.9c-4.61-4.86-10.49-6.24-16.8-6.57a2,2,0,0,1-1.41-1.15C350.73,400,350.49,398.49,350.06,396.59Z" transform="translate(8.82 -13.82)"/><path class="cls-7" d="M361.2,377a53.44,53.44,0,0,1,17.84-5.4c-.29,2.06-.47,3.88-.86,5.65-.09.41-.88.79-1.42.94-1.24.36-2.63.32-3.75.87C368.64,381.18,365,379.27,361.2,377Z" transform="translate(8.82 -13.82)"/><path class="cls-7" d="M377.3,426.32c-2.15-.12-4.28-.63-6.22-.24a26.34,26.34,0,0,0-7.29,2.78c-1.47.81-2.49,1.11-3.69-.11,2.13-5.53,9.22-9.57,15-8.66,1.18.18,1.78.67,1.86,1.86s.29,2.27.4,3.4A4.3,4.3,0,0,1,377.3,426.32Z" transform="translate(8.82 -13.82)"/><path class="cls-7" d="M365.05,387.89c-1.75,1-3.2,1.88-4.73,2.62a2.52,2.52,0,0,1-1.58-.14c-2.73-.84-5.41-1.87-8.18-2.54-1.42-.35-2.09-.86-2.16-2.33s-.35-2.67-.59-4.36C354.35,381.67,359.69,384.43,365.05,387.89Z" transform="translate(8.82 -13.82)"/><path class="cls-7" d="M345.92,367.09l18.83,6.3c-1.88,1.26-3.36,2.33-4.92,3.25a2.25,2.25,0,0,1-1.58,0c-3.22-.95-6.39-2-9.63-2.9-1.21-.32-1.85-.75-2-2C346.52,370.25,346.2,368.8,345.92,367.09Z" transform="translate(8.82 -13.82)"/><path class="cls-7" d="M377.86,385.43v5.69c-3.61,1.08-7.13,2.23-10.71,3.13-.7.17-1.67-.57-2.46-1s-1.83-1.08-3.05-1.8A31.4,31.4,0,0,1,377.86,385.43Z" transform="translate(8.82 -13.82)"/><path class="cls-7" d="M363.31,398.88c2.59-3.13,9.19-5.68,14.7-5.88-.13,2.2-.25,4.38-.35,6.27-3.33.6-6.33,1.45-9.36,1.56C366.75,400.89,365.15,399.64,363.31,398.88Z" transform="translate(8.82 -13.82)"/><path class="cls-7" d="M348.69,388.78c6.13.85,11.17,3.64,16.6,6.32-1.22,1-2.21,1.83-3.29,2.55-.3.2-.9,0-1.33-.07-2.89-.73-5.74-1.65-8.67-2.19-1.62-.3-2.63-.69-2.68-2.54A34.26,34.26,0,0,0,348.69,388.78Z" transform="translate(8.82 -13.82)"/><path class="cls-7" d="M352,406.78c-.53-2.95-.17-3.32,3.33-2.94a26.1,26.1,0,0,1,13,5.63c.77.58.94,1.94,1.41,3Z" transform="translate(8.82 -13.82)"/><path class="cls-7" d="M377.51,436.46c-3.49.82-6.64,1.93-9.86,2.18-1.52.12-3.17-1.4-5.09-2.34,4.53-3.44,9.21-3.93,14.05-3.75.32,0,.8.72.86,1.15A19.91,19.91,0,0,1,377.51,436.46Z" transform="translate(8.82 -13.82)"/><path class="cls-7" d="M377.36,438.24v4.49c-3.27.62-6.38,1.42-9.52,1.7-1.53.14-3.14-.73-4.7-1.44C367.15,439.13,372,438.32,377.36,438.24Z" transform="translate(8.82 -13.82)"/><path class="cls-7" d="M365.25,420.58c-.12.22-.14.28-.18.34-1.85,2.45-4.09,3.15-6.88,1.58a4.94,4.94,0,0,0-1.22-.37c-4.73-1.23-4.84-1.4-4.32-6.45C355.25,415.57,361.15,417.85,365.25,420.58Z" transform="translate(8.82 -13.82)"/><path class="cls-7" d="M353.15,427.28l13.33,5.46c-2.47,1.5-4.36,3.36-7.16,1.72a7,7,0,0,0-1.85-.51C353,432.94,352.77,432.56,353.15,427.28Z" transform="translate(8.82 -13.82)"/><path class="cls-7" d="M377.28,431.49a37.45,37.45,0,0,0-6.51.51c-2.74.69-4.81-.35-7.18-1.77,2.83-2.37,6.08-2.73,9.4-2.84a7.89,7.89,0,0,1,1.28.1C377.85,427.86,377.94,428,377.28,431.49Z" transform="translate(8.82 -13.82)"/><path class="cls-7" d="M365.3,439.18c-3.21,3.78-6.68,2.51-9.65.49-1.19-.82-1.27-3.27-2-5.48A27,27,0,0,1,365.3,439.18Z" transform="translate(8.82 -13.82)"/><path class="cls-7" d="M365.44,445.17c-1,2.31-2.12,3.13-4.43,2.36a35.21,35.21,0,0,0-6.26-1v-6.23Z" transform="translate(8.82 -13.82)"/><path class="cls-7" d="M377.87,379.57c.58,3.46.05,4.16-3.13,4.86-2.33.52-4.62,1.25-7,1.89C369,381.22,370.73,380.07,377.87,379.57Z" transform="translate(8.82 -13.82)"/><path class="cls-7" d="M367.22,419.28a.54.54,0,0,1,0-.27c2.07-5.06,2.61-5.31,10-4.48,0,.64.08,1.32.1,2s0,1.26,0,1.78Z" transform="translate(8.82 -13.82)"/><path class="cls-7" d="M377.24,412.9h-7c.06-4.33,1.09-5.81,4-5.71C376.26,407.26,377.5,409.54,377.24,412.9Z" transform="translate(8.82 -13.82)"/><path class="cls-7" d="M368.57,402.09l8.62-1.64v5.24C373.48,406.94,371,405.16,368.57,402.09Z" transform="translate(8.82 -13.82)"/><path class="cls-7" d="M377.62,444.61c-.07,1.25-.15,2.51-.2,3.31H365.25C366.5,445.05,372.31,443.47,377.62,444.61Z" transform="translate(8.82 -13.82)"/><path class="cls-7" d="M353.32,422.15l8.28,2.69-3.06,3.74C356,427.07,352.11,427,353.32,422.15Z" transform="translate(8.82 -13.82)"/><path class="cls-7" d="M376.76,451.88c-3.21-.5-6.42-1-9.62-1.52a3.68,3.68,0,0,1-2-1.07,15.83,15.83,0,0,1,11.24-.05c1.54.55,1.64,1.57.28,2.59Z" transform="translate(8.82 -13.82)"/><path class="cls-7" d="M354.83,451v-3.54c3.28.36,6.55.1,9.83,2.36Z" transform="translate(8.82 -13.82)"/><path class="cls-7" d="M341,230l5.82-.28,0,.52h-5.92Z" transform="translate(8.82 -13.82)"/><path class="cls-7" d="M340.62,218.78l5.46-.25,0,.54h-5.47Z" transform="translate(8.82 -13.82)"/><path class="cls-7" d="M346.43,223.87H339.9l0-.06,6.51-.52Z" transform="translate(8.82 -13.82)"/><path class="cls-7" d="M340.4,225.47l6.18-.45,0,.57h-6.21Z" transform="translate(8.82 -13.82)"/><path class="cls-7" d="M254.49,407.47l-25.93,7.14v-9H229v8L254.29,407Z" transform="translate(8.82 -13.82)"/></g><text class="cls-8" transform="translate(203.81 391.71)">ΔΣ</text><text class="cls-9" transform="matrix(0.29, 0.96, -0.96, 0.29, 629.17, 256.62)">P</text><text class="cls-9" transform="matrix(0.21, 0.98, -0.98, 0.21, 635.15, 276.19)">R</text><text class="cls-9" transform="translate(640.11 298.93) rotate(82.62)">E</text><text class="cls-9" transform="translate(643.15 322.37) rotate(87.43)">C</text><text class="cls-9" transform="matrix(-0.02, 1, -1, -0.02, 644.02, 345.02)">I</text><text class="cls-9" transform="translate(643.81 358.17) rotate(94.33)">S</text><text class="cls-9" transform="matrix(-0.13, 0.99, -0.99, -0.13, 642.48, 375.16)">I</text><text class="cls-9" transform="translate(641.03 388.17) rotate(101.67)">O</text><text class="cls-9" transform="translate(635.77 414) rotate(107.39)">N</text><text class="cls-9" transform="translate(627 440.92) rotate(111.21)"> </text><text class="cls-9" transform="translate(623.99 448.68) rotate(112.95)"> </text><text class="cls-9" transform="translate(620.74 456.36) rotate(114.69)"> </text><text class="cls-9" transform="matrix(-0.37, -0.93, 0.93, -0.37, 118.37, 456.79)">K</text><text class="cls-9" transform="matrix(-0.28, -0.96, 0.96, -0.28, 110, 435.85)">N</text><text class="cls-9" transform="translate(102.18 408.8) rotate(-100.48)">O</text><text class="cls-9" transform="translate(97.35 383.52) rotate(-94.75)">W</text><text class="cls-9" transform="translate(95.06 353.66) rotate(-89.4)">L</text><text class="cls-9" transform="translate(95.21 332.51) rotate(-84.7)">E</text><text class="cls-9" transform="translate(97.31 308.99) rotate(-79.47)">D</text><text class="cls-9" transform="translate(102.09 283.38) rotate(-74.19)">G</text><text class="cls-9" transform="translate(108.71 260) rotate(-69.21)">E</text><text class="cls-10" transform="matrix(0.47, -0.88, 0.88, 0.47, 173.33, 255.8)">G</text><text class="cls-10" transform="translate(183.72 236.31) rotate(-56.2)">R</text><text class="cls-10" transform="translate(195.52 218.7) rotate(-50.74)">A</text><text class="cls-10" transform="matrix(0.71, -0.7, 0.7, 0.71, 207.86, 203.2)">M</text><text class="cls-10" transform="translate(227.89 183.84) rotate(-37.9)">B</text><text class="cls-10" transform="matrix(0.84, -0.54, 0.54, 0.84, 244.11, 171.23)">L</text><text class="cls-10" transform="translate(260.47 160.94) rotate(-28.34)">I</text><text class="cls-10" transform="translate(270.77 155.02) rotate(-23.3)">N</text><text class="cls-10" transform="translate(294.37 144.99) rotate(-17.27)">G</text><text class="cls-10" transform="translate(315.67 138.67) rotate(-13.1)"> </text><text class="cls-10" transform="translate(322.95 136.87) rotate(-10.04)">S</text><text class="cls-10" transform="translate(338.11 134.04) rotate(-5.18)">T</text><text class="cls-10" transform="matrix(1, -0.01, 0.01, 1, 356.61, 132.27)">A</text><text class="cls-10" transform="matrix(1, 0.09, -0.09, 1, 376.5, 132.12)">T</text><text class="cls-10" transform="matrix(0.98, 0.19, -0.19, 0.98, 397.25, 133.95)">E</text><text class="cls-10" transform="translate(418.46 138.25) rotate(14.74)"> </text><text class="cls-10" transform="matrix(0.95, 0.32, -0.32, 0.95, 425.69, 139.85)">U</text><text class="cls-10" transform="translate(447.52 147.18) rotate(25.28)">N</text><text class="cls-10" transform="translate(470.67 158.43) rotate(30.27)">I</text><text class="cls-10" transform="translate(481.03 164.28) rotate(34.54)">V</text><text class="cls-10" transform="matrix(0.77, 0.64, -0.64, 0.77, 497.7, 175.68)">E</text><text class="cls-10" transform="matrix(0.7, 0.72, -0.72, 0.7, 514.15, 189.51)">R</text><text class="cls-10" transform="translate(528.86 204.79) rotate(50.7)">S</text><text class="cls-10" transform="matrix(0.58, 0.81, -0.81, 0.58, 538.63, 216.8)">I</text><text class="cls-10" transform="translate(545.73 226.38) rotate(58.81)">T</text><text class="cls-10" transform="matrix(0.43, 0.9, -0.9, 0.43, 556.53, 244.23)">Y</text><text class="cls-11" transform="translate(139.6 361.28)"><tspan xml:space="preserve">19                         52</tspan></text><path class="cls-12" d="M383.2,518.3" transform="translate(8.82 -13.82)"/><polygon class="cls-12" points="433.93 425.37 433.83 508.73 479.25 486.91 433.93 425.37"/><polygon class="cls-12" points="430.95 425.37 430.91 508.73 385.63 486.91 430.95 425.37"/><line class="cls-13" x1="416.65" y1="446.58" x2="425.51" y2="450.85"/><line class="cls-13" x1="419.64" y1="479.45" x2="431.42" y2="485.13"/><line class="cls-13" x1="402.45" y1="466.01" x2="411.75" y2="470.49"/><line class="cls-13" x1="392.98" y1="478.22" x2="412.05" y2="487.4"/><line class="cls-13" x1="417.22" y1="460.27" x2="431.04" y2="466.93"/><line class="cls-13" x1="412.94" y1="493.2" x2="430.51" y2="501.67"/><line class="cls-13" x1="432.75" y1="498.21" x2="460.44" y2="484.91"/><line class="cls-13" x1="441.3" y1="477.39" x2="464.62" y2="466.18"/><line class="cls-13" x1="432.14" y1="467.57" x2="446.62" y2="460.62"/><line class="cls-13" x1="439.9" y1="447.78" x2="447.69" y2="444.04"/><polygon class="cls-12" points="306.91 425.37 306.87 508.73 261.59 486.91 306.91 425.37"/><polygon class="cls-12" points="309.88 425.37 309.93 508.73 355.2 486.91 309.88 425.37"/><line class="cls-13" x1="265.32" y1="479.57" x2="281.62" y2="487.42"/><line class="cls-13" x1="284.65" y1="475.98" x2="310.64" y2="488.5"/><line class="cls-13" x1="280.31" y1="460.81" x2="297.58" y2="469.13"/><line class="cls-13" x1="293.03" y1="451.67" x2="309.02" y2="459.38"/><line class="cls-13" x1="296.12" y1="439.81" x2="301.47" y2="442.39"/><line class="cls-12" x1="355.2" y1="486.91" x2="309.93" y2="508.73"/><line class="cls-13" x1="335.26" y1="486.71" x2="309.54" y2="499.1"/><line class="cls-13" x1="320.69" y1="481.31" x2="309.12" y2="486.88"/><line class="cls-13" x1="324.23" y1="458.71" x2="308.85" y2="466.12"/><line class="cls-13" x1="337.99" y1="463.29" x2="323.81" y2="470.12"/><line class="cls-13" x1="322.32" y1="442.22" x2="309.66" y2="448.32"/><line class="cls-13" x1="344.97" y1="474.31" x2="332.31" y2="480.41"/><line class="cls-13" x1="328.37" y1="449.73" x2="322.33" y2="452.64"/><polygon class="cls-12" points="371.57 454.03 371.63 567.42 433.22 537.74 371.57 454.03"/><polygon class="cls-12" points="369 454.03 368.93 567.42 307.34 537.74 369 454.03"/><line class="cls-12" x1="307.34" y1="537.74" x2="368.93" y2="567.42"/><line class="cls-13" x1="318.22" y1="522.45" x2="344.08" y2="534.91"/><line class="cls-13" x1="334.97" y1="499.03" x2="360.18" y2="511.17"/><line class="cls-13" x1="346.96" y1="483.67" x2="356.67" y2="488.35"/><line class="cls-13" x1="356.06" y1="495.14" x2="370.33" y2="502.01"/><line class="cls-13" x1="354.98" y1="550.15" x2="369.25" y2="557.02"/><line class="cls-13" x1="334.71" y1="514.83" x2="369.92" y2="531.79"/><line class="cls-13" x1="401.78" y1="517.52" x2="370.56" y2="532.54"/><line class="cls-13" x1="427.46" y1="531.49" x2="403.7" y2="542.92"/><line class="cls-13" x1="405.53" y1="501.68" x2="379.97" y2="513.97"/><line class="cls-13" x1="389.84" y1="492.2" x2="371.21" y2="501.16"/><line class="cls-13" x1="385.51" y1="473.32" x2="368.65" y2="481.43"/><line class="cls-13" x1="415.7" y1="526.22" x2="370.95" y2="547.75"/><path class="cls-14" d="M298.53,551.57" transform="translate(8.82 -13.82)"/></svg>